<?xml version="1.0" encoding="UTF-8" standalone="no"?>
<!-- Created with Inkscape (http://www.inkscape.org/) -->

<svg
   xmlns:dc="http://purl.org/dc/elements/1.1/"
   xmlns:cc="http://creativecommons.org/ns#"
   xmlns:rdf="http://www.w3.org/1999/02/22-rdf-syntax-ns#"
   xmlns:svg="http://www.w3.org/2000/svg"
   xmlns="http://www.w3.org/2000/svg"
   xmlns:sodipodi="http://sodipodi.sourceforge.net/DTD/sodipodi-0.dtd"
   xmlns:inkscape="http://www.inkscape.org/namespaces/inkscape"
   width="512mm"
   height="512mm"
   viewBox="0 0 1814.1732 1814.1732"
   id="svg10218"
   version="1.1"
   inkscape:version="0.91 r13725"
   sodipodi:docname="sound_mute.svg">
  <defs
     id="defs10220">
    <clipPath
       clipPathUnits="userSpaceOnUse"
       id="clipPath1938">
      <path
         d="m 2721.639,2203.975 -33.111,-33.111 -33.111,33.111 c -5.89,5.889 -15.527,5.889 -21.417,0 l 0,0 c -5.889,-5.889 -5.889,-15.525 0,-21.415 l 0,0 33.112,-33.112 -33.112,-33.111 c -5.889,-5.89 -5.889,-15.527 0,-21.417 l 0,0 c 5.89,-5.888 15.527,-5.888 21.417,0 l 0,0 33.111,33.112 33.111,-33.112 c 5.888,-5.888 15.526,-5.888 21.415,0 l 0,0 c 5.89,5.89 5.89,15.527 0,21.417 l 0,0 -33.111,33.111 33.111,33.112 c 5.89,5.89 5.89,15.526 0,21.415 l 0,0 c -2.945,2.944 -6.826,4.417 -10.708,4.417 l 0,0 c -3.881,0 -7.763,-1.473 -10.707,-4.417"
         id="path1940"
         inkscape:connector-curvature="0" />
    </clipPath>
    <clipPath
       clipPathUnits="userSpaceOnUse"
       id="clipPath1946">
      <path
         d="m 2624.66,2213.71 165.42,0 0,-168.51 -165.42,0 0,168.51 z"
         id="path1948"
         inkscape:connector-curvature="0" />
    </clipPath>
    <clipPath
       clipPathUnits="userSpaceOnUse"
       id="clipPath1890">
      <path
         d="m 0,4629.055 3590.051,0 L 3590.051,0 0,0 0,4629.055 Z"
         id="path1892"
         inkscape:connector-curvature="0" />
    </clipPath>
    <clipPath
       clipPathUnits="userSpaceOnUse"
       id="clipPath1898">
      <path
         d="m 2547.62,2248.26 18.57,0 0,-12.32 -18.57,0 0,12.32 z"
         id="path1900"
         inkscape:connector-curvature="0" />
    </clipPath>
    <clipPath
       clipPathUnits="userSpaceOnUse"
       id="clipPath1914">
      <path
         d="m 2476.04,2241.18 57.62,0 0,-83.08 -57.62,0 0,83.08 z"
         id="path1916"
         inkscape:connector-curvature="0" />
    </clipPath>
  </defs>
  <sodipodi:namedview
     id="base"
     pagecolor="#ffffff"
     bordercolor="#666666"
     borderopacity="1.0"
     inkscape:pageopacity="0.0"
     inkscape:pageshadow="2"
     inkscape:zoom="0.35"
     inkscape:cx="494.28285"
     inkscape:cy="862.85714"
     inkscape:document-units="px"
     inkscape:current-layer="layer1"
     showgrid="false"
     inkscape:window-width="1855"
     inkscape:window-height="1056"
     inkscape:window-x="65"
     inkscape:window-y="24"
     inkscape:window-maximized="1" />
  <metadata
     id="metadata10223">
    <rdf:RDF>
      <cc:Work
         rdf:about="">
        <dc:format>image/svg+xml</dc:format>
        <dc:type
           rdf:resource="http://purl.org/dc/dcmitype/StillImage" />
        <dc:title></dc:title>
      </cc:Work>
    </rdf:RDF>
  </metadata>
  <g
     inkscape:label="Capa 1"
     inkscape:groupmode="layer"
     id="layer1"
     transform="translate(0,761.81102)">
    <g
       id="g1862"
       transform="matrix(5.3082098,0,0,-5.3082098,296.40618,528.24485)">
      <path
         d="m 0,0 0,0 c -22.798,0 -41.45,18.652 -41.45,41.45 l 0,54.588 c 0,22.797 18.652,41.45 41.45,41.45 22.798,0 41.45,-18.653 41.45,-41.45 l 0,-54.588 C 41.45,18.652 22.798,0 0,0"
         style="fill:#242428;fill-opacity:1;fill-rule:nonzero;stroke:none"
         id="path1864"
         inkscape:connector-curvature="0" />
    </g>
    <g
       id="g1866"
       transform="matrix(5.3082098,0,0,-5.3082098,853.95978,-495.25951)">
      <path
         d="m 0,0 c -67.354,-1.369 -121.534,-56.39 -121.534,-124.071 0,-67.682 54.18,-122.703 121.534,-124.072 L 0,0 Z"
         style="fill:#3e3c45;fill-opacity:1;fill-rule:nonzero;stroke:none"
         id="path1868"
         inkscape:connector-curvature="0" />
    </g>
    <g
       id="g1878"
       transform="matrix(5.3082098,0,0,-5.3082098,853.95978,-495.25951)">
      <path
         d="m 0,0 c -67.354,-1.369 -121.534,-56.39 -121.534,-124.071 0,-67.682 54.18,-122.703 121.534,-124.072 L 0,0 Z"
         style="fill:#323139;fill-opacity:1;fill-rule:nonzero;stroke:none"
         id="path1880"
         inkscape:connector-curvature="0" />
    </g>
    <g
       id="g1882"
       transform="matrix(5.3082098,0,0,-5.3082098,957.01933,-595.30653)">
      <path
         d="m 0,0 c -67.354,-1.369 -121.534,-56.39 -121.534,-124.071 0,-67.682 54.18,-122.702 121.534,-124.072 L 0,0 Z"
         style="fill:#3e3c45;fill-opacity:1;fill-rule:nonzero;stroke:none"
         id="path1884"
         inkscape:connector-curvature="0" />
    </g>
    <g
       transform="matrix(5.3082098,0,0,-5.3082098,-12851.208,11549.25)"
       id="g1886">
      <g
         id="g1888"
         clip-path="url(#clipPath1890)">
        <g
           id="g1894">
          <g
             id="g1896" />
          <g
             id="g1902">
            <g
               clip-path="url(#clipPath1898)"
               id="g1904"
               style="opacity:0.46000701">
              <g
                 transform="translate(2553.6519,2235.9355)"
                 id="g1906">
                <path
                   d="m 0,0 c -3.11,0 -5.743,2.385 -6.008,5.537 -0.271,3.318 2.196,6.232 5.519,6.505 2.308,0.191 4.647,0.285 6.998,0.285 3.333,0 6.031,-2.7 6.031,-6.031 C 12.54,2.966 9.842,0.265 6.509,0.265 4.488,0.265 2.479,0.183 0.501,0.021 0.335,0.006 0.165,0 0,0"
                   style="fill:#ffffff;fill-opacity:1;fill-rule:nonzero;stroke:none"
                   id="path1908"
                   inkscape:connector-curvature="0" />
              </g>
            </g>
          </g>
        </g>
        <g
           id="g1910">
          <g
             id="g1912" />
          <g
             id="g1918">
            <g
               clip-path="url(#clipPath1914)"
               id="g1920"
               style="opacity:0.46000701">
              <g
                 transform="translate(2482.0679,2158.1025)"
                 id="g1922">
                <path
                   d="m 0,0 c -3.333,0 -6.031,2.7 -6.031,6.031 0,32.787 19.26,62.817 49.071,76.499 3.016,1.39 6.603,0.065 7.999,-2.966 1.39,-3.027 0.059,-6.605 -2.969,-7.996 C 22.536,59.844 6.032,34.121 6.032,6.031 6.032,2.7 3.334,0 0,0"
                   style="fill:#ffffff;fill-opacity:1;fill-rule:nonzero;stroke:none"
                   id="path1924"
                   inkscape:connector-curvature="0" />
              </g>
            </g>
          </g>
        </g>
        <g
           id="g1926"
           transform="translate(2709.9429,2149.4482)">
          <path
             d="m 0,0 33.111,33.111 c 5.89,5.89 5.89,15.527 0,21.416 -5.888,5.889 -15.526,5.889 -21.415,0 L -21.415,21.416 -54.526,54.527 c -5.89,5.889 -15.527,5.889 -21.416,0 -5.89,-5.889 -5.89,-15.526 0,-21.416 L -42.831,0 -75.942,-33.111 c -5.89,-5.89 -5.89,-15.527 0,-21.416 5.889,-5.889 15.526,-5.889 21.416,0 l 33.111,33.111 33.111,-33.111 c 5.889,-5.889 15.527,-5.889 21.415,0 5.89,5.889 5.89,15.526 0,21.416 L 0,0 Z"
             style="fill:#ff7376;fill-opacity:1;fill-rule:nonzero;stroke:none"
             id="path1928"
             inkscape:connector-curvature="0" />
        </g>
        <g
           id="g1930"
           transform="translate(2588.0835,2001.3359)">
          <path
             d="m 0,0 0,0 c -8.054,0 -14.643,6.589 -14.643,14.642 l 0,255.858 c 0,8.053 6.589,14.642 14.643,14.642 8.053,0 14.642,-6.589 14.642,-14.642 l 0,-255.858 C 14.642,6.589 8.053,0 0,0"
             style="fill:#242428;fill-opacity:1;fill-rule:nonzero;stroke:none"
             id="path1932"
             inkscape:connector-curvature="0" />
        </g>
      </g>
    </g>
    <g
       transform="matrix(5.3082098,0,0,-5.3082098,-12851.208,11549.25)"
       id="g1934">
      <g
         id="g1936"
         clip-path="url(#clipPath1938)">
        <g
           id="g1942">
          <g
             id="g1944" />
          <g
             id="g1950">
            <g
               clip-path="url(#clipPath1946)"
               id="g1952"
               style="opacity:0.07000732">
              <g
                 transform="translate(2624.6646,2090.5039)"
                 id="g1954">
                <path
                   d="m 0,0 129.3,123.203 36.111,-102.619 0,-34.869 C 165.411,-14.285 51.224,-92.805 0,0"
                   style="fill:#000000;fill-opacity:1;fill-rule:nonzero;stroke:none"
                   id="path1956"
                   inkscape:connector-curvature="0" />
              </g>
            </g>
          </g>
        </g>
      </g>
    </g>
  </g>
</svg>
