<svg xmlns="http://www.w3.org/2000/svg" viewBox="0 0 64 56"><defs><style>.cls-1{fill:#74d800;}.cls-2{fill:#5dad00;}</style></defs><title>Sound</title><g id="Layer_2" data-name="Layer 2"><g id="Layer_1-2" data-name="Layer 1"><circle class="cls-1" cx="32" cy="28" r="12"/><path class="cls-2" d="M4,14H16a0,0,0,0,1,0,0V42a0,0,0,0,1,0,0H4a4,4,0,0,1-4-4V18A4,4,0,0,1,4,14Z"/><path class="cls-1" d="M39.14,3.52a4,4,0,0,0-4.63-1.23l-20,8A4,4,0,0,0,12,14V42a4,4,0,0,0,2.51,3.71l20,8a4,4,0,0,0,5.13-2A4,4,0,0,0,40,49.93V6.19A4.26,4.26,0,0,0,39.14,3.52Z"/><path class="cls-1" d="M53.51,50.9a2,2,0,0,1-1.43-3.39,28,28,0,0,0,0-39,2,2,0,1,1,2.87-2.79,32,32,0,0,1,0,44.59A2,2,0,0,1,53.51,50.9Z"/><path class="cls-1" d="M48,45a2,2,0,0,1-1.46-3.37,20,20,0,0,0,0-27.36,2,2,0,1,1,2.92-2.74,24,24,0,0,1,0,32.84A2,2,0,0,1,48,45Z"/><path class="cls-2" d="M36,0a4,4,0,0,0-4,4V52a4,4,0,0,0,8,0V4A4,4,0,0,0,36,0Z"/></g></g></svg>