<?xml version="1.0" ?><!DOCTYPE svg  PUBLIC '-//W3C//DTD SVG 1.1//EN'  'http://www.w3.org/Graphics/SVG/1.1/DTD/svg11.dtd'><svg height="100%" style="fill-rule:evenodd;clip-rule:evenodd;stroke-linejoin:round;stroke-miterlimit:2;" version="1.1" viewBox="0 0 24 24" width="100%" xml:space="preserve" xmlns="http://www.w3.org/2000/svg" xmlns:serif="http://www.serif.com/" xmlns:xlink="http://www.w3.org/1999/xlink"><g id="Icon"><path d="M8.348,4.023c-0.851,-0.479 -1.893,-0.47 -2.736,0.023c-0.844,0.493 -1.362,1.397 -1.362,2.374c0,3.201 0,7.959 0,11.16c0,0.977 0.518,1.881 1.362,2.374c0.843,0.493 1.885,0.502 2.736,0.023c2.827,-1.59 7.056,-3.969 9.921,-5.58c0.866,-0.487 1.402,-1.403 1.402,-2.397c-0,-0.994 -0.536,-1.91 -1.402,-2.397l-9.921,-5.58Zm-0.735,1.307l9.92,5.581c0.394,0.221 0.638,0.637 0.638,1.089c-0,0.452 -0.244,0.868 -0.638,1.089c-2.865,1.612 -7.094,3.991 -9.92,5.581c-0.387,0.217 -0.861,0.214 -1.244,-0.011c-0.383,-0.224 -0.619,-0.635 -0.619,-1.079c0,-3.201 0,-7.959 -0,-11.16c0,-0.444 0.236,-0.855 0.619,-1.079c0.383,-0.225 0.857,-0.228 1.244,-0.011Z"/></g></svg>