<?xml version="1.0" ?><svg style="enable-background:new 0 0 100 100;" version="1.1" viewBox="0 0 100 100" xml:space="preserve" xmlns="http://www.w3.org/2000/svg" xmlns:xlink="http://www.w3.org/1999/xlink"><style type="text/css">
	.st0{fill:#FFFFFF;}
	.st1{fill:#D43C89;}
	.st2{fill:#B2005F;}
	.st3{fill:none;stroke:#000000;stroke-width:3;stroke-linecap:round;stroke-linejoin:round;stroke-miterlimit:10;}
	
		.st4{fill-rule:evenodd;clip-rule:evenodd;fill:none;stroke:#000000;stroke-width:3;stroke-linecap:round;stroke-linejoin:round;stroke-miterlimit:10;}
	
		.st5{fill-rule:evenodd;clip-rule:evenodd;fill:none;stroke:#040404;stroke-width:3;stroke-linecap:round;stroke-linejoin:round;stroke-miterlimit:10;}
	.st6{fill-rule:evenodd;clip-rule:evenodd;}
	.st7{fill-rule:evenodd;clip-rule:evenodd;fill:#040404;}
	.st8{fill:url(#SVGID_1_);}
	.st9{fill:url(#SVGID_2_);}
	.st10{fill:url(#SVGID_3_);}
	.st11{fill:url(#SVGID_4_);}
	.st12{fill:url(#SVGID_5_);}
	.st13{fill:url(#SVGID_6_);}
	.st14{fill:url(#SVGID_7_);}
	.st15{fill:url(#SVGID_8_);}
	.st16{fill:url(#SVGID_9_);}
	.st17{fill:url(#SVGID_10_);}
	.st18{fill:url(#SVGID_11_);}
	.st19{fill:url(#SVGID_12_);}
	.st20{fill:url(#SVGID_13_);}
	.st21{fill:url(#SVGID_14_);}
	.st22{fill:url(#SVGID_15_);}
	.st23{fill:url(#SVGID_16_);}
	.st24{fill:url(#SVGID_17_);}
	.st25{fill:url(#SVGID_18_);}
	.st26{fill:url(#SVGID_19_);}
	.st27{fill:url(#SVGID_20_);}
	.st28{fill:url(#SVGID_21_);}
	.st29{fill:url(#SVGID_22_);}
	.st30{fill:url(#SVGID_23_);}
	.st31{fill:url(#SVGID_24_);}
	.st32{fill:url(#SVGID_25_);}
	.st33{fill:url(#SVGID_26_);}
	.st34{fill:url(#SVGID_27_);}
	.st35{fill:url(#SVGID_28_);}
	.st36{fill:url(#SVGID_29_);}
	.st37{fill:url(#SVGID_30_);}
	.st38{fill:url(#SVGID_31_);}
	.st39{fill:url(#SVGID_32_);}
	.st40{fill:url(#SVGID_33_);}
	.st41{fill:url(#SVGID_34_);}
	.st42{fill:url(#SVGID_35_);}
	.st43{fill:url(#SVGID_36_);}
	.st44{fill:url(#SVGID_37_);}
	.st45{fill:url(#SVGID_38_);}
	.st46{fill:url(#SVGID_39_);}
	.st47{fill:url(#SVGID_40_);}
	.st48{fill:url(#SVGID_41_);}
	.st49{fill:url(#SVGID_42_);}
	.st50{fill:url(#SVGID_43_);}
	.st51{fill:url(#SVGID_44_);}
	.st52{fill:url(#SVGID_45_);}
	.st53{fill:url(#SVGID_46_);}
	.st54{fill:#040404;}
	.st55{fill:url(#SVGID_47_);}
	.st56{fill:url(#SVGID_48_);}
	.st57{fill:url(#SVGID_49_);}
	.st58{fill:url(#SVGID_50_);}
	.st59{fill:url(#SVGID_51_);}
	.st60{fill:url(#SVGID_52_);}
	.st61{fill:url(#SVGID_53_);}
	.st62{fill:url(#SVGID_54_);}
	.st63{fill:url(#SVGID_55_);}
	.st64{fill:url(#SVGID_56_);}
	.st65{fill:url(#SVGID_57_);}
	.st66{fill:url(#SVGID_58_);}
	.st67{fill:url(#SVGID_59_);}
	.st68{fill:url(#SVGID_60_);}
	.st69{fill:url(#SVGID_61_);}
	.st70{fill:url(#SVGID_62_);}
	.st71{fill:url(#SVGID_63_);}
	.st72{fill:none;stroke:#000000;stroke-width:3;stroke-miterlimit:10;}
	.st73{fill:none;stroke:#FFFFFF;stroke-miterlimit:10;}
	.st74{fill:#4BC9FF;}
	.st75{fill:#5500DD;}
	.st76{fill:#FF3A00;}
	.st77{fill:#FFC794;}
	.st78{fill:#F1F1F1;}
	.st79{fill:#EB4E00;}
	.st80{fill:#E6162D;}
	.st81{fill:#FF9933;}
	.st82{fill:#B92B27;}
	.st83{fill:#00ACED;}
	.st84{fill:#BD2125;}
	.st85{fill:#1877F2;}
	.st86{fill:#6665D2;}
	.st87{fill:#CE3056;}
	.st88{fill:#5BB381;}
	.st89{fill:#61C3EC;}
	.st90{fill:#E4B34B;}
	.st91{fill:#181EF2;}
	.st92{fill:#FF0000;}
	.st93{fill:#FE466C;}
	.st94{fill:#FA4778;}
	.st95{fill:#FF7700;}
	.st96{fill:#D95040;}
	.st97{fill:#58A55C;}
	.st98{fill:#4E86EC;}
	.st99{fill:#B6332A;}
	.st100{fill:#F3BD42;}
	.st101{fill-rule:evenodd;clip-rule:evenodd;fill:#1F6BF6;}
	.st102{fill:#520094;}
	.st103{fill:#4477E8;}
	.st104{fill:#3D1D1C;}
	.st105{fill:#FFE812;}
	.st106{fill:#344356;}
	.st107{fill:#00CC76;}
	.st108{fill-rule:evenodd;clip-rule:evenodd;fill:#345E90;}
	.st109{fill:#1F65D8;}
	.st110{fill:#EB3587;}
	.st111{fill-rule:evenodd;clip-rule:evenodd;fill:#603A88;}
	.st112{fill:#E3CE99;}
	.st113{fill:#783AF9;}
	.st114{fill:#FF515E;}
	.st115{fill:#FF4906;}
	.st116{fill:#503227;}
	.st117{fill:#4C7BD9;}
	.st118{fill:#69C9D0;}
	.st119{fill:#1B92D1;}
	.st120{fill:#EB4F4A;}
	.st121{fill:#513728;}
	.st122{fill:#FF6600;}
	.st123{fill-rule:evenodd;clip-rule:evenodd;fill:#B61438;}
	.st124{fill:#FFFC00;}
	.st125{fill:#141414;}
	.st126{fill:#94D137;}
	.st127{fill-rule:evenodd;clip-rule:evenodd;fill:#F1F1F1;}
	.st128{fill-rule:evenodd;clip-rule:evenodd;fill:#66E066;}
	.st129{fill:#464EB8;}
	.st130{fill:#7B83EB;}
	.st131{fill:#2D8CFF;}
	.st132{fill:#F1A300;}
	.st133{fill:#4BA2F2;}
	.st134{fill:#1A5099;}
	.st135{fill:#EE6060;}
	.st136{fill-rule:evenodd;clip-rule:evenodd;fill:#F48120;}
	.st137{fill:#222222;}
	.st138{fill:url(#SVGID_64_);}
	.st139{fill:#0077B5;}
	.st140{fill:#FFCC00;}
	.st141{fill:#EB3352;}
	.st142{fill:#F9D265;}
	.st143{fill:#F5B955;}
	.st144{fill:#DC322F;}
	.st145{fill:#4DA94C;}
	.st146{fill:#39802F;}
	.st147{fill:#F6BD41;}
	.st148{fill:#EB5141;}
	.st149{fill:#2165D6;}
	.st150{fill:#2F83F7;}
	.st151{fill:#DD2A7B;}
</style><g id="Layer_1"/><g id="Layer_2"><path d="M58.41,86.855c32.707-7.462,40.141-50.942,11.768-68.844c-1.592-1.051-0.101-3.435,1.546-2.457   c18.758,11.275,24.791,37.857,12.753,56.13c-11.259,18.58-37.201,24.714-55.61,13.075c0,0-15.518,3.636-15.518,3.636   c-1.012,0.276-2.011-0.74-1.744-1.744c0,0,3.637-15.518,3.638-15.518C-1.369,44.566,18.73,8.925,50.003,9.293   c1.909,0.022,1.9,2.887,0.002,2.903C19.644,12.029,2.609,46.118,18.204,71.212l-3.24,13.824l13.824-3.239   c0.379-0.092,0.776-0.023,1.105,0.184C38.438,87.361,48.566,89.092,58.41,86.855z M37.185,92.742   c-2.259-0.681-4.481-1.551-6.607-2.586c-1.567-0.856-5.915-1.628-7.608-0.437c-0.332,0.233-0.694,0.618-0.55,1.536   c0.17,0.717,0.948,1.201,1.724,1.021c0.225-0.043,0.441-0.099,0.668-0.158c1.022-0.266,2.282-0.576,3.268,0.063   c2.578,1.344,5.37,2.479,8.234,3.335c1.005,0.289,1.591-0.352,1.786-0.988C38.291,93.906,38.165,93.066,37.185,92.742z    M7.762,75.787c-0.219,1.06,0.449,1.605,1.088,1.754c0.628,0.145,1.463-0.044,1.734-1.068l0.795-3.416   c0.08-0.346,0.024-0.714-0.159-1.036c-1.66-2.92-2.985-6.029-3.94-9.241c-0.316-0.931-1.058-1.112-1.78-0.911   c-0.634,0.193-1.271,0.779-0.981,1.794c0.852,2.842,1.987,5.634,3.371,8.29c0.608,0.936,0.27,2.251,0.023,3.211   C7.853,75.388,7.798,75.599,7.762,75.787z M15.003,91.402l-0.013-0.062c-0.578,0.2-1.631,0.446-3.531,0.89   c-2.136,0.572-4.262-1.556-3.694-3.691l0.84-3.607c0.212-1.023-0.454-1.566-1.091-1.715c-0.734-0.149-1.464,0.08-1.741,1.076   l-1.66,7.127c-0.228,0.967-0.065,1.964,0.458,2.808c0.523,0.843,1.342,1.432,2.307,1.656c0.553,0.129,1.141,0.129,1.702,0   l7.138-1.64c1.015-0.264,1.209-1.101,1.06-1.736C16.626,91.859,16.068,91.181,15.003,91.402z M45.462,5.629   c3.012-0.306,6.07-0.305,9.084,0c1.031,0.07,1.464-0.655,1.525-1.298c0.062-0.655-0.241-1.465-1.301-1.593   c-3.164-0.319-6.382-0.318-9.551,0.001c-0.404,0.041-0.764,0.24-1.013,0.561c-0.246,0.317-0.348,0.711-0.287,1.107   C44.035,5.169,44.707,5.713,45.462,5.629z M92.729,37.182L92.729,37.182c0.219,0.734,0.973,1.163,1.725,0.975   c0.39-0.096,0.714-0.341,0.912-0.69c0.201-0.352,0.247-0.759,0.131-1.148c-0.918-3.058-2.149-6.032-3.66-8.839   c-0.476-0.846-1.258-0.928-1.961-0.571c-0.574,0.306-1.075,0.995-0.597,1.928C90.7,31.477,91.863,34.29,92.729,37.182z    M13.452,22.041c0.661,0.492,1.606,0.391,2.151-0.229c1.825-2.078,4.387-4.871,6.227-6.372c0.786-0.679,0.586-1.515,0.17-2.021   c-0.422-0.513-1.213-0.877-2.058-0.215c-2.454,2.003-4.727,4.276-6.743,6.744C12.676,20.562,12.794,21.572,13.452,22.041z    M84.56,21.823L84.56,21.823c0.483,0.593,1.372,0.694,1.986,0.225c0.328-0.245,0.531-0.594,0.58-0.991   c0.05-0.401-0.064-0.795-0.32-1.108c-2.014-2.467-4.287-4.74-6.756-6.755c-0.675-0.573-1.548-0.389-2.029,0.224   c-0.421,0.515-0.624,1.361,0.191,2.051C80.525,17.359,82.665,19.5,84.56,21.823z M86.547,77.949L86.547,77.949   c-0.621-0.463-1.502-0.366-1.998,0.241c-1.9,2.324-4.047,4.467-6.381,6.37c-0.595,0.485-0.7,1.35-0.237,1.971   c0.24,0.326,0.59,0.531,0.988,0.581c0.402,0.052,0.796-0.062,1.111-0.318c2.467-2.01,4.744-4.281,6.769-6.749   c0.257-0.313,0.371-0.707,0.322-1.109C87.071,78.538,86.868,78.187,86.547,77.949z M54.537,94.363   c-3.013,0.306-6.066,0.305-9.075-0.001c-0.942-0.093-1.488,0.646-1.526,1.302c-0.062,0.657,0.241,1.468,1.302,1.596   c3.157,0.319,6.377,0.319,9.552-0.001c0.404-0.041,0.763-0.24,1.012-0.56c0.246-0.317,0.348-0.71,0.288-1.107   C55.973,94.828,55.294,94.284,54.537,94.363z M94.444,61.826c-0.725-0.186-1.507,0.238-1.722,0.976   c-0.865,2.895-2.029,5.713-3.462,8.378c-0.363,0.674-0.129,1.513,0.534,1.909c0.345,0.207,0.745,0.262,1.133,0.157   c0.391-0.107,0.712-0.363,0.904-0.72c1.512-2.809,2.744-5.788,3.66-8.855c0.117-0.39,0.07-0.8-0.132-1.153   C95.159,62.168,94.834,61.922,94.444,61.826z M97.252,45.214c-0.041-0.404-0.239-0.763-0.559-1.012   c-0.317-0.247-0.715-0.349-1.106-0.289c-0.761,0.114-1.297,0.8-1.219,1.56c0.307,3,0.307,6.044,0,9.048   c-0.075,1.033,0.649,1.481,1.293,1.544c0.657,0.062,1.463-0.239,1.594-1.303C97.572,51.607,97.572,48.389,97.252,45.214z    M71.852,89.092c-0.228,0-0.459,0.055-0.674,0.17v0c-2.656,1.429-5.469,2.593-8.361,3.458c-0.983,0.325-1.12,1.167-0.933,1.786   c0.191,0.628,0.779,1.258,1.814,0.976c3.043-0.914,6.017-2.146,8.821-3.655c0.358-0.192,0.613-0.514,0.721-0.904   C73.518,90.04,72.754,89.059,71.852,89.092z M4.342,56.066c0.642-0.063,1.365-0.508,1.295-1.556   c-0.302-2.998-0.302-6.039,0.001-9.038c0.074-1.032-0.652-1.48-1.297-1.543c-0.705-0.057-1.454,0.253-1.595,1.303   c-0.317,3.156-0.318,6.374,0.001,9.55C2.876,55.827,3.685,56.125,4.342,56.066z M5.493,38.123c0.618,0.19,1.454,0.051,1.789-0.946   c0.864-2.89,2.027-5.702,3.456-8.36c0.362-0.674,0.128-1.512-0.534-1.908c-0.644-0.405-1.562-0.14-1.883,0.549   c-1.094,2.218-3.044,6.318-3.81,8.869C4.23,37.343,4.863,37.933,5.493,38.123z M62.814,7.274c2.891,0.865,5.706,2.028,8.366,3.459   c0.675,0.362,1.513,0.128,1.908-0.533c0.208-0.345,0.263-0.746,0.157-1.133c-0.107-0.391-0.363-0.712-0.72-0.904   c-2.805-1.508-5.784-2.739-8.856-3.66c-1.022-0.278-1.609,0.354-1.801,0.985C61.682,6.103,61.818,6.939,62.814,7.274z    M28.822,10.731c2.663-1.432,5.481-2.596,8.375-3.461c0.983-0.325,1.12-1.165,0.933-1.784c-0.158-0.699-0.996-1.267-1.817-0.977   c-3.038,0.912-6.015,2.144-8.832,3.656c-0.358,0.192-0.613,0.513-0.721,0.903c-0.106,0.386-0.052,0.788,0.154,1.131   C27.312,10.86,28.148,11.092,28.822,10.731z"/></g></svg>